<?xml version="1.0" encoding="utf-8"?>
<!-- Generator: Adobe Illustrator 21.0.2, SVG Export Plug-In . SVG Version: 6.00 Build 0)  -->
<svg version="1.1" id="Layer_1" xmlns="http://www.w3.org/2000/svg" xmlns:xlink="http://www.w3.org/1999/xlink" x="0px" y="0px"
	 viewBox="0 0 150 75" style="enable-background:new 0 0 150 75;" xml:space="preserve">
<style type="text/css">
	.st0{fill:#FFFFFF;}
</style>
<g>
	<g>
		<path class="st0" d="M55,61.6L55,61.6c-0.9,1.4-2.6,2.1-4.1,2.1c-3.1,0-5.4-2.3-5.4-5.4c0-3.1,2.2-5.4,5.4-5.4
			c1.5,0,3.3,0.6,4.1,2.1h0v-8.3h1.3v16.7H55V61.6z M50.8,54.1c-2.5,0-4,1.9-4,4.2c0,2.3,1.5,4.2,4,4.2c2.4,0,4.3-1.9,4.3-4.2
			C55.1,56,53.2,54.1,50.8,54.1z"/>
		<path class="st0" d="M68.6,61.4c-1,1.5-2.6,2.2-4.4,2.2c-3.1,0-5.2-2.2-5.2-5.4c0-3.1,2.1-5.3,5.1-5.3c3.1,0,4.8,2.4,4.8,4.8v0.9
			h-8.6c0,1.1,0.8,3.8,3.9,3.8c1.3,0,2.8-0.7,3.4-1.8L68.6,61.4z M67.5,57.4c0-1.8-1.6-3.3-3.5-3.3c-2.9,0-3.7,2.8-3.7,3.3H67.5z"/>
		<path class="st0" d="M71.9,60.8c0.6,1.1,1.8,1.7,3,1.7c1.1,0,2.3-0.7,2.3-1.9c0-2.8-6.1-0.8-6.1-4.7c0-2,1.8-2.9,3.5-2.9
			c1.7,0,2.9,0.6,3.6,1.9L77,55.5c-0.5-0.9-1.2-1.4-2.4-1.4c-1,0-2.2,0.6-2.2,1.6c0,2.8,6.1,0.6,6.1,4.8c0,2.1-1.7,3.2-3.7,3.2
			c-1.7,0-3.3-0.7-4.1-2.1L71.9,60.8z"/>
		<path class="st0" d="M82.1,48.1c0.6,0,1,0.4,1,1c0,0.6-0.4,1-1,1c-0.6,0-1-0.4-1-1C81.1,48.6,81.6,48.1,82.1,48.1z M81.5,53.1h1.3
			v10.2h-1.3V53.1z"/>
		<path class="st0" d="M96.8,62.7c0,5.1-3.4,6-5.4,6c-2.1,0-4-0.8-5.1-2.1l1-1c0.9,1.3,2.4,1.9,4,1.9c4,0,4.1-3.5,4.1-4.7v-1.4h0
			c-0.8,1.2-2.1,2-3.9,2c-3,0-5.5-2.4-5.5-5.2c0-2.9,2.5-5.2,5.5-5.2c1.7,0,3.1,0.8,3.9,2h0v-1.7h1.3V62.7z M91.5,54.1
			c-2.2,0-4,1.8-4,4c0,2.2,1.8,4,4,4c2.2,0,4-1.8,4-4C95.5,55.9,93.7,54.1,91.5,54.1z"/>
		<path class="st0" d="M100.1,56c0-0.8-0.1-2.3-0.1-2.9h1.3c0,0.8,0,1.6,0.1,1.8h0.1c0.5-1.1,1.8-2.1,3.5-2.1c3.2,0,3.9,2.2,3.9,4.4
			v6.1h-1.3v-6c0-1.7-0.5-3.3-2.6-3.3c-2,0-3.5,1.4-3.5,4.2v5.1h-1.3V56z"/>
	</g>
	<g>
		<path class="st0" d="M23.8,20.6c3.2,0,6.4,0,9.6,0c2,0,2-3.2,0-3.2c-3.2,0-6.4,0-9.6,0c0-3.2,0-6.4,0-9.6c0-2-3.2-2-3.2,0
			c0,8.1,0,16.3,0,24.4c0,3,0,6.1,0,9.1c0,7.1,5.8,12.6,12.8,12.8c2,0,2-3.1,0-3.2c-5.8-0.1-9.6-4.7-9.6-10.3c0-3.6,0-7.1,0-10.7
			C23.8,26.9,23.8,23.8,23.8,20.6z"/>
		<path class="st0" d="M109.8,30.2c0,3.5,1,9.4-4,9.6c-5,0.2-4-6.5-4-9.6c0-2-3.2-2-3.2,0c0,1.9,0,3.7,0,5.6c-0.2,5.2-7.8,5.2-8,0
			c-0.1-1.9,0-3.7,0-5.6c0-2-3.2-2-3.2,0c0,3.8-0.6,7.9,2.3,10.8c3.3,3.3,7.9,2.1,10.4-0.9c1.3,1.7,3.4,2.8,5.7,2.9
			c3.6,0.2,7-3.1,7.1-6.6c0.1-2,0-4.1,0-6.1C113,28.2,109.8,28.2,109.8,30.2z"/>
		<path class="st0" d="M129.3,43.1c0-2.6,0-5.1,0-7.7c0-1.7,0-3.5,0-5.2c0-2-3.2-2-3.2,0c0,1.7,0,3.4,0,5.2c-0.2,2.3-1.1,4.3-4,4.4
			c-5,0.2-4-6.5-4-9.6c0-2-3.2-2-3.2,0c0,1.9,0,3.7,0,5.6c0,4,3.3,7,7.2,7.2c1.5,0.1,2.9-0.4,4-1.3c0.1,3.7,0.6,9.1-4,9.3
			c-2,0.1-2,3.3,0,3.2c3.6-0.2,6.6-2.6,7.1-6.2C129.5,46.4,129.3,44.7,129.3,43.1z"/>
		<path class="st0" d="M44.1,28.7c-1.5-0.1-2.9,0.4-4,1.3c-0.1-3.7-0.6-9.1,4-9.3c2-0.1,2-3.3,0-3.2c-3.6,0.2-6.6,2.6-7.1,6.2
			c-0.2,1.6-0.1,3.3-0.1,4.9c0,2.5,0,5.1,0,7.6c0,1.7,0,3.5,0,5.3c0,2,3.2,2,3.2,0c0-1.7,0-3.5,0-5.2c0.2-2.3,1.1-4.3,4-4.4
			c5-0.2,4,6.5,4,9.6c0,2,3.2,2,3.2,0c0-1.9,0-3.7,0-5.6C51.3,31.8,48,28.8,44.1,28.7z"/>
		<path class="st0" d="M82.3,30.2c0,3.5,1,9.4-4,9.6c-5,0.2-4-6.5-4-9.6c0-2-3.2-2-3.2,0c0,1.9,0,3.7,0,5.6c-0.2,5.2-7.8,5.2-8,0
			c-0.1-1.9,0-3.7,0-5.6c0-2-3.2-2-3.2,0c0,3.8-0.6,7.9,2.3,10.8c3.3,3.3,7.9,2.1,10.4-0.9c1.3,1.7,3.4,2.8,5.7,2.9
			c3.6,0.2,7-3.1,7.1-6.6c0.1-2,0-4.1,0-6.1C85.5,28.2,82.3,28.2,82.3,30.2z"/>
		<path class="st0" d="M54.1,30.2c0,3.7,0,7.5,0,11.2c0,2,3.2,2,3.2,0c0-3.7,0-7.5,0-11.2C57.2,28.2,54.1,28.2,54.1,30.2z"/>
		<circle class="st0" cx="55.6" cy="20" r="2.4"/>
	</g>
</g>
</svg>
