<?xml version="1.0" encoding="utf-8"?>
<!-- Generator: Adobe Illustrator 21.0.2, SVG Export Plug-In . SVG Version: 6.00 Build 0)  -->
<svg version="1.1" id="Layer_1" xmlns="http://www.w3.org/2000/svg" xmlns:xlink="http://www.w3.org/1999/xlink" x="0px" y="0px"
	 viewBox="0 0 150 150" style="enable-background:new 0 0 150 150;" xml:space="preserve">
<style type="text/css">
	.st0{fill:#FFFFFF;}
	.st1{fill:#FFA400;}
	.st2{fill:#004A97;}
</style>
<circle class="st0" cx="75" cy="75" r="75"/>
<g>
	<path class="st1" d="M55.1,101.2L55.1,101.2c-0.9,1.4-2.6,2.1-4.1,2.1c-3.1,0-5.4-2.3-5.4-5.4c0-3.1,2.2-5.4,5.4-5.4
		c1.5,0,3.3,0.6,4.1,2.1h0v-8.3h1.3V103h-1.3V101.2z M51,93.7c-2.5,0-4,1.9-4,4.2c0,2.3,1.5,4.2,4,4.2c2.4,0,4.3-1.9,4.3-4.2
		C55.3,95.6,53.4,93.7,51,93.7z"/>
	<path class="st1" d="M68.7,101.1c-1,1.5-2.6,2.2-4.4,2.2c-3.1,0-5.2-2.2-5.2-5.4c0-3.1,2.1-5.3,5.1-5.3c3.1,0,4.8,2.4,4.8,4.8v0.9
		h-8.6c0,1.1,0.8,3.8,3.9,3.8c1.3,0,2.8-0.7,3.4-1.8L68.7,101.1z M67.7,97c0-1.8-1.6-3.3-3.5-3.3c-2.9,0-3.7,2.8-3.7,3.3H67.7z"/>
	<path class="st1" d="M72,100.4c0.6,1.1,1.8,1.7,3,1.7c1.1,0,2.3-0.7,2.3-1.9c0-2.8-6.1-0.8-6.1-4.7c0-2,1.8-2.9,3.5-2.9
		c1.7,0,2.9,0.6,3.6,1.9l-1.2,0.7c-0.5-0.9-1.2-1.4-2.4-1.4c-1,0-2.2,0.6-2.2,1.6c0,2.8,6.1,0.6,6.1,4.8c0,2.1-1.7,3.2-3.7,3.2
		c-1.7,0-3.3-0.7-4.1-2.1L72,100.4z"/>
	<path class="st1" d="M82.3,87.7c0.6,0,1,0.4,1,1c0,0.6-0.4,1-1,1c-0.6,0-1-0.4-1-1C81.3,88.2,81.8,87.7,82.3,87.7z M81.6,92.8H83
		V103h-1.3V92.8z"/>
	<path class="st1" d="M97,102.3c0,5.1-3.4,6-5.4,6c-2.1,0-4-0.8-5.1-2.1l1-1c0.9,1.3,2.4,1.9,4,1.9c4,0,4.1-3.5,4.1-4.7V101h0
		c-0.8,1.2-2.1,2-3.9,2c-3,0-5.5-2.4-5.5-5.2c0-2.9,2.5-5.2,5.5-5.2c1.7,0,3.1,0.8,3.9,2h0v-1.7H97V102.3z M91.7,93.7
		c-2.2,0-4,1.8-4,4c0,2.2,1.8,4,4,4c2.2,0,4-1.8,4-4C95.7,95.5,93.9,93.7,91.7,93.7z"/>
	<path class="st1" d="M100.2,95.6c0-0.8-0.1-2.3-0.1-2.9h1.3c0,0.8,0,1.6,0.1,1.8h0.1c0.5-1.1,1.8-2.1,3.5-2.1
		c3.2,0,3.9,2.2,3.9,4.4v6.1h-1.3v-6c0-1.7-0.5-3.3-2.6-3.3c-2,0-3.5,1.4-3.5,4.2v5.1h-1.3V95.6z"/>
</g>
<g>
	<path class="st2" d="M24,60.2c3.2,0,6.4,0,9.6,0c2,0,2-3.2,0-3.2c-3.2,0-6.4,0-9.6,0c0-3.2,0-6.4,0-9.6c0-2-3.2-2-3.2,0
		c0,8.1,0,16.3,0,24.4c0,3,0,6.1,0,9.1c0,7.1,5.8,12.6,12.8,12.8c2,0,2-3.1,0-3.2c-5.8-0.1-9.6-4.7-9.6-10.3c0-3.6,0-7.1,0-10.7
		C24,66.5,24,63.4,24,60.2z"/>
	<path class="st2" d="M110,69.9c0,3.5,1,9.4-4,9.6c-5,0.2-4-6.5-4-9.6c0-2-3.2-2-3.2,0c0,1.9,0,3.7,0,5.6c-0.2,5.2-7.8,5.2-8,0
		c-0.1-1.9,0-3.7,0-5.6c0-2-3.2-2-3.2,0c0,3.8-0.6,7.9,2.3,10.8c3.3,3.3,7.9,2.1,10.4-0.9c1.3,1.7,3.4,2.8,5.7,2.9
		c3.6,0.2,7-3.1,7.1-6.6c0.1-2,0-4.1,0-6.1C113.2,67.8,110,67.8,110,69.9z"/>
	<path class="st2" d="M129.5,82.7c0-2.6,0-5.1,0-7.7c0-1.7,0-3.5,0-5.2c0-2-3.2-2-3.2,0c0,1.7,0,3.4,0,5.2c-0.2,2.3-1.1,4.3-4,4.4
		c-5,0.2-4-6.5-4-9.6c0-2-3.2-2-3.2,0c0,1.9,0,3.7,0,5.6c0,4,3.3,7,7.2,7.2c1.5,0.1,2.9-0.4,4-1.3c0.1,3.7,0.6,9.1-4,9.3
		c-2,0.1-2,3.3,0,3.2c3.6-0.2,6.6-2.6,7.1-6.2C129.6,86,129.5,84.3,129.5,82.7z"/>
	<path class="st2" d="M44.3,68.3c-1.5-0.1-2.9,0.4-4,1.3c-0.1-3.7-0.6-9.1,4-9.3c2-0.1,2-3.3,0-3.2c-3.6,0.2-6.6,2.6-7.1,6.2
		c-0.2,1.6-0.1,3.3-0.1,4.9c0,2.5,0,5.1,0,7.6c0,1.7,0,3.5,0,5.3c0,2,3.2,2,3.2,0c0-1.7,0-3.5,0-5.2c0.2-2.3,1.1-4.3,4-4.4
		c5-0.2,4,6.5,4,9.6c0,2,3.2,2,3.2,0c0-1.9,0-3.7,0-5.6C51.5,71.4,48.2,68.5,44.3,68.3z"/>
	<path class="st2" d="M82.5,69.9c0,3.5,1,9.4-4,9.6c-5,0.2-4-6.5-4-9.6c0-2-3.2-2-3.2,0c0,1.9,0,3.7,0,5.6c-0.2,5.2-7.8,5.2-8,0
		c-0.1-1.9,0-3.7,0-5.6c0-2-3.2-2-3.2,0c0,3.8-0.6,7.9,2.3,10.8c3.3,3.3,7.9,2.1,10.4-0.9c1.3,1.7,3.4,2.8,5.7,2.9
		c3.6,0.2,7-3.1,7.1-6.6c0.1-2,0-4.1,0-6.1C85.7,67.8,82.5,67.8,82.5,69.9z"/>
	<path class="st2" d="M54.2,69.9c0,3.7,0,7.5,0,11.2c0,2,3.2,2,3.2,0c0-3.7,0-7.5,0-11.2C57.4,67.8,54.2,67.8,54.2,69.9z"/>
	<circle class="st2" cx="55.8" cy="59.6" r="2.4"/>
</g>
</svg>
